<svg width="343" height="74" viewBox="0 0 343 74" fill="none" xmlns="http://www.w3.org/2000/svg">
<path d="M107.12 59V13.56H122.224C129.477 13.56 135.045 15.544 138.928 19.512C142.853 23.4373 144.816 29.048 144.816 36.344C144.816 43.5973 142.896 49.1867 139.056 53.112C135.216 57.0373 129.733 59 122.608 59H107.12ZM115.44 51.768H122.224C126.96 51.768 130.48 50.488 132.784 47.928C135.088 45.368 136.24 41.5067 136.24 36.344C136.24 31.096 135.088 27.192 132.784 24.632C130.48 22.072 126.96 20.792 122.224 20.792H115.44V51.768ZM167.389 59.768C163.976 59.768 161.01 59.0427 158.493 57.592C155.976 56.0987 154.034 54.008 152.669 51.32C151.304 48.632 150.621 45.496 150.621 41.912C150.621 38.328 151.304 35.2133 152.669 32.568C154.034 29.88 155.954 27.7893 158.429 26.296C160.946 24.8027 163.869 24.056 167.197 24.056C170.44 24.056 173.277 24.7813 175.709 26.232C178.184 27.6827 180.082 29.7733 181.405 32.504C182.728 35.2347 183.389 38.52 183.389 42.36V44.216H159.133C159.304 47.2027 160.114 49.464 161.565 51C163.058 52.4933 165.021 53.24 167.453 53.24C169.288 53.24 170.802 52.8347 171.997 52.024C173.234 51.1707 174.088 49.9973 174.557 48.504L182.941 49.016C182.002 52.344 180.146 54.968 177.373 56.888C174.642 58.808 171.314 59.768 167.389 59.768ZM159.133 38.712H174.941C174.77 35.9387 173.981 33.8907 172.573 32.568C171.165 31.2027 169.373 30.52 167.197 30.52C165.021 30.52 163.208 31.224 161.757 32.632C160.349 34.04 159.474 36.0667 159.133 38.712ZM197.949 59L185.469 24.824H194.109L202.813 50.744L211.517 24.824H220.157L207.677 59H197.949ZM225.995 59V13.56H241.099C248.352 13.56 253.92 15.544 257.803 19.512C261.728 23.4373 263.691 29.048 263.691 36.344C263.691 43.5973 261.771 49.1867 257.931 53.112C254.091 57.0373 248.608 59 241.483 59H225.995ZM234.315 51.768H241.099C245.835 51.768 249.355 50.488 251.659 47.928C253.963 45.368 255.115 41.5067 255.115 36.344C255.115 31.096 253.963 27.192 251.659 24.632C249.355 22.072 245.835 20.792 241.099 20.792H234.315V51.768ZM286.328 59.768C282.957 59.768 279.992 59.0427 277.432 57.592C274.915 56.0987 272.952 54.008 271.544 51.32C270.179 48.632 269.496 45.496 269.496 41.912C269.496 38.2853 270.179 35.1493 271.544 32.504C272.952 29.816 274.915 27.7467 277.432 26.296C279.992 24.8027 282.957 24.056 286.328 24.056C289.699 24.056 292.643 24.8027 295.16 26.296C297.677 27.7467 299.619 29.816 300.984 32.504C302.392 35.1493 303.096 38.2853 303.096 41.912C303.096 45.496 302.392 48.632 300.984 51.32C299.619 54.008 297.677 56.0987 295.16 57.592C292.643 59.0427 289.699 59.768 286.328 59.768ZM286.328 53.112C288.973 53.112 291 52.1307 292.408 50.168C293.859 48.2053 294.584 45.4533 294.584 41.912C294.584 38.4133 293.859 35.6827 292.408 33.72C291 31.7147 288.973 30.712 286.328 30.712C283.683 30.712 281.635 31.7147 280.184 33.72C278.733 35.6827 278.008 38.4133 278.008 41.912C278.008 45.4533 278.733 48.2053 280.184 50.168C281.635 52.1307 283.683 53.112 286.328 53.112ZM324.266 59.768C320.852 59.768 317.887 59.0427 315.37 57.592C312.852 56.0987 310.89 54.008 309.482 51.32C308.116 48.632 307.434 45.496 307.434 41.912C307.434 38.328 308.116 35.2133 309.482 32.568C310.89 29.88 312.852 27.7893 315.37 26.296C317.887 24.8027 320.852 24.056 324.266 24.056C327.167 24.056 329.748 24.568 332.01 25.592C334.271 26.616 336.106 28.088 337.514 30.008C338.964 31.8853 339.86 34.1893 340.201 36.92L331.754 37.368C331.412 35.192 330.559 33.5493 329.194 32.44C327.871 31.288 326.228 30.712 324.266 30.712C321.62 30.712 319.572 31.7147 318.122 33.72C316.671 35.6827 315.946 38.4133 315.946 41.912C315.946 45.4533 316.671 48.2053 318.122 50.168C319.572 52.1307 321.62 53.112 324.266 53.112C326.271 53.112 327.935 52.536 329.258 51.384C330.623 50.232 331.455 48.44 331.754 46.008L340.201 46.392C339.86 49.1227 338.986 51.4907 337.578 53.496C336.17 55.5013 334.335 57.0587 332.074 58.168C329.812 59.2347 327.21 59.768 324.266 59.768Z" fill="url(#paint0_linear_2650_5)"/>
<path fill-rule="evenodd" clip-rule="evenodd" d="M37 0C57.4345 0 74 16.5655 74 37C74 57.4345 57.4345 74 37 74C16.5655 74 0 57.4345 0 37C0 16.5655 16.5655 0 37 0ZM48.6003 20.0652C47.6068 19.0885 46.0098 19.1013 45.033 20.0948C44.1172 21.0263 44.0716 22.4892 44.8884 23.4732L45.0642 23.6621L58.6288 37L45.0642 50.3379C44.0707 51.3147 44.0562 52.9117 45.033 53.9052C46.0098 54.8987 47.6068 54.9115 48.6003 53.9348L63.9961 38.7984C64.4783 38.3242 64.75 37.6763 64.75 37C64.75 36.3237 64.4783 35.6758 63.9961 35.2016L48.6003 20.0652ZM28.967 20.0948C28.0513 19.1634 26.5896 19.093 25.5919 19.8928L25.3997 20.0652L10.0039 35.2016C9.52169 35.6758 9.25 36.3237 9.25 37C9.25 37.6763 9.52169 38.3242 10.0039 38.7984L25.3997 53.9348L25.5919 54.1072C26.5896 54.907 28.0513 54.8366 28.967 53.9052C29.8828 52.9737 29.9284 51.5108 29.1115 50.5268L28.9358 50.3379L15.3696 37L28.9358 23.6621C29.9293 22.6853 29.9438 21.0883 28.967 20.0948Z" fill="url(#paint1_linear_2650_5)"/>
<defs>
<linearGradient id="paint0_linear_2650_5" x1="102" y1="23" x2="699.48" y2="5356.06" gradientUnits="userSpaceOnUse">
<stop stop-color="#3B82F6"/>
<stop offset="0.5" stop-color="#2563EB"/>
<stop offset="1" stop-color="#1D4ED8"/>
</linearGradient>
<linearGradient id="paint1_linear_2650_5" x1="0" y1="0" x2="7400" y2="7400" gradientUnits="userSpaceOnUse">
<stop stop-color="#3B82F6"/>
<stop offset="0.5" stop-color="#2563EB"/>
<stop offset="1" stop-color="#1D4ED8"/>
</linearGradient>
</defs>
</svg>
